# xmcd CD database file
#
# Track frame offsets:
#	150
#	15902
#	32102
#	44110
#	61370
#	77067
#	91697
#	106500
#	122202
#	137880
#	154775
#	168855
#	183110
#	197468
#	211735
#	228608
#	245835
#	265990
#	283265
#	300280
#	311412
#
# Disc length: 4371 seconds
#
# Revision: 0
# Processed by: cddbd v1.5.2PL0 Copyright (c) Steve Scherf et al.
# Submitted via: CDex 1.70beta2
#
DISCID=14111115
DTITLE=ChartBreakers - ChartBreakers CGC-518
DYEAR=1900
DGENRE=Country
TTITLE0=Doug Stone - In A Different Light
TTITLE1=Travis Tritt - Can I Trust You With My Heart
TTITLE2=Tanya Tucker - It's A Little Too Late
TTITLE3=Wynonna - Tell Me Why
TTITLE4=Dwight Yoakam - A Thousand Miles From Nowhere
TTITLE5=Travis Tritt - Looking Out For Number One
TTITLE6=Dwight Yoakam - Ain't That Lonely Yet
TTITLE7=Garth Brooks - Unanswered Prayers
TTITLE8=Garth Brooks - What She's Doing Now
TTITLE9=Tanya Tucker - Tell Me About It
TTITLE10=George Strait - You Know Me Better Than That
TTITLE11=Marty Stuart - Tempted
TTITLE12=Randy Travis - Look Heart, No Hands
TTITLE13=Randy Travis - On The Other Hand
TTITLE14=Travis Tritt - Drift Off To Dream
TTITLE15=Tanya Tucker - Some Kind Of Trouble
TTITLE16=Wynonna - She Is His Only Need
TTITLE17=Trisha Yearwood - The Woman Before Me
TTITLE18=Alabama - Then Again
TTITLE19=Mark Chesnutt - Old Flames Have New Names
TTITLE20=Mark Chesnutt - Too Cold At Home
EXTD=YEAR: 1900
EXTT0=
EXTT1=
EXTT2=
EXTT3=
EXTT4=
EXTT5=
EXTT6=
EXTT7=
EXTT8=
EXTT9=
EXTT10=
EXTT11=
EXTT12=
EXTT13=
EXTT14=
EXTT15=
EXTT16=
EXTT17=
EXTT18=
EXTT19=
EXTT20=
PLAYORDER=
